<svg version="1.1" viewBox="0 0 640 400" xmlns="http://www.w3.org/2000/svg" xmlns:xlink="http://www.w3.org/1999/xlink" xmlns:svgjs="http://svgjs.dev/svgjs" matcher="0.40034307012726233"><g viewBox="0 0 640 400" matcher="0.40034307012726233"><g matcher="0.40034307012726233"><g matcher="0.40034307012726233"><g matcher="0.40034307012726233"><svg viewBox="0 0 640 400" data-background-color="#003366" preserveAspectRatio="xMidYMid meet" height="400" width="640" xmlns="http://www.w3.org/2000/svg" xmlns:xlink="http://www.w3.org/1999/xlink"><rect width="640" height="400" x="0" y="0" opacity="1" fill="#003366" data-fill-palette-color="background" id="background"></rect><g id="tight-bounds" transform="matrix(1,0,0,1,122.24000000000001,113.5982125349599)"><svg viewBox="0 0 395.52 172.8035749300802" height="172.8035749300802" width="395.52"><g><svg viewBox="0 0 395.52 172.8035749300802" height="172.8035749300802" width="395.52"><g><svg viewBox="0 0 395.52 172.8035749300802" height="172.8035749300802" width="395.52"><g id="textblocktransform"><svg viewBox="0 0 395.52 172.8035749300802" height="172.8035749300802" width="395.52" id="textblock"><g><svg viewBox="0 0 395.52 134.76627757664113" height="134.76627757664113" width="395.52"><path d="M394.594 28.905C392.735 14.916 387.435 11.027 387.435 11.027 371.165-3.381 350.86-0.276 332.619 1.795 300.414 1.879 268.339 4.956 236.208 6.607 168.767 6.859 100.749 2.718 33.643 12.93 27.339 16.063-6.54 13.545 1.121 30.695 3.129 37.83 10.456 45.747 10.232 52.294 11.236 53.441 12.631 50.811 13.226 52.462 15.309 56.91 18.711 54.812 21.501 57.442 17.614 64.464 20.403 70.311 23.062 76.438 18.377 78.033 12.371 77.278 9.675 82.565 9.396 86.398 7.89 85.671 6.235 85.503 5.026 85.391 2.59 85.811 2.999 87.014 4.394 91.126-1.594 93.505 2.162 97.533-0.422 101.898 3.948 105.675 3.353 110.403 3.278 111.354 3.687 112.165 4.338 112.389 7.22 113.592 3.018 115.942 3.464 118.488 33.029 135.89 65.104 123.86 95.394 131.862 103.259 126.266 97.346 133.848 100.489 132.673 102.943 131.302 104.728 136.981 107.499 133.764 107.927 132.841 107.276 130.659 108.8 131.078 109.6 131.302 110.307 131.246 110.418 129.959 110.586 128.029 109.117 129.232 108.726 128.225 112.947 123.133 111.906 135.247 115.866 134.743 115.68 133.26 114.528 131.134 116.889 131.414 119.232 129.288 119.306 127.525 121.389 132.309 121.463 133.344 121.835 134.072 122.43 134.575 128.938 129.372 135.409 136.422 142.233 134.072 146.417 131.498 150.433 135.471 154.672 134.491 156.16 133.708 157.666 132.309 159.098 134.659 176.632 135.163 195.319 133.065 211.943 134.743 256.364 131.61 303.835 136.03 350.674 131.89 361.719 130.295 373.192 128.029 383.958 126.21 383.958 126.21 392.679 121.23 392.679 98.848S394.538 79.264 394.817 61.442C395.096 43.621 396.398 42.893 394.538 28.905Z" opacity="1" fill="#ffffff" data-fill-palette-color="tertiary"></path><g transform="matrix(1,0,0,1,55.76832,26.068561146666667)"><svg width="283.98335999999995" viewBox="3.799999952316284 -36.5 163.239990234375 47.5" height="82.6291552833078" data-palette-color="#003366"><path d="M8.6 0L3.8 0 3.8-35 18.55-35Q21.85-35 24.55-33.52 27.25-32.05 28.85-29.4 30.45-26.75 30.45-23.2L30.45-23.2Q30.45-19.75 28.88-17.1 27.3-14.45 24.6-12.95 21.9-11.45 18.45-11.45L18.45-11.45 8.6-11.45 8.6 0ZM8.6-30.75L8.6-15.7 17.9-15.7Q20.05-15.7 21.83-16.57 23.6-17.45 24.63-19.15 25.65-20.85 25.65-23.2L25.65-23.2Q25.65-25.6 24.63-27.28 23.6-28.95 21.83-29.85 20.05-30.75 17.95-30.75L17.95-30.75 8.6-30.75ZM40.5 0L35.9 0 35.9-18.25Q35.9-21.65 37.82-23.58 39.75-25.5 43.15-25.5L43.15-25.5 48.4-25.5 48.4-21.55 44-21.55Q42.35-21.55 41.42-20.6 40.5-19.65 40.5-17.95L40.5-17.95 40.5 0ZM72.15 0L65.59 0Q61.4 0 58.15-1.58 54.9-3.15 53.07-6.03 51.25-8.9 51.25-12.75L51.25-12.75Q51.25-16.55 52.8-19.58 54.35-22.6 57.1-24.35 59.85-26.1 63.5-26.1L63.5-26.1Q67.45-26.1 70.07-24.4 72.7-22.7 74-19.83 75.3-16.95 75.3-13.4L75.3-13.4Q75.3-12.85 75.27-12.25 75.25-11.65 75.15-11.2L75.15-11.2 56.15-11.2Q56.4-8.85 57.7-7.23 59-5.6 61.02-4.78 63.05-3.95 65.5-3.95L65.5-3.95 72.15-3.95 72.15 0ZM56.1-14.45L56.1-14.45 70.65-14.45Q70.65-15.4 70.45-16.48 70.25-17.55 69.75-18.57 69.25-19.6 68.42-20.43 67.59-21.25 66.37-21.75 65.15-22.25 63.5-22.25L63.5-22.25Q61.75-22.25 60.42-21.58 59.1-20.9 58.15-19.78 57.2-18.65 56.7-17.25 56.2-15.85 56.1-14.45ZM94.04-26.1L94.04-26.1Q90.34-26.1 87.39-24.5 84.44-22.9 82.72-19.88 80.99-16.85 80.99-12.6L80.99-12.6 80.99 11 85.59 11 85.59-4.55 85.69-4.55Q86.54-3 87.92-1.85 89.29-0.7 91.07-0.05 92.84 0.6 94.79 0.6L94.79 0.6Q98.34 0.6 101.14-1 103.94-2.6 105.57-5.53 107.19-8.45 107.19-12.45L107.19-12.45Q107.19-15.6 106.22-18.13 105.24-20.65 103.49-22.45 101.74-24.25 99.34-25.18 96.94-26.1 94.04-26.1ZM94.04-22.15L94.04-22.15Q96.39-22.15 98.32-21 100.24-19.85 101.39-17.75 102.54-15.65 102.54-12.75L102.54-12.75Q102.54-9.95 101.42-7.85 100.29-5.75 98.39-4.55 96.49-3.35 94.09-3.35L94.09-3.35Q91.74-3.35 89.82-4.5 87.89-5.65 86.77-7.78 85.64-9.9 85.64-12.8L85.64-12.8Q85.64-15.65 86.77-17.75 87.89-19.85 89.82-21 91.74-22.15 94.04-22.15ZM117.74 0L113.09 0 113.09-25.5 117.74-25.5 117.74 0ZM115.44-29.55L115.44-29.55Q114.19-29.55 113.27-30.48 112.34-31.4 112.34-32.65L112.34-32.65Q112.34-33.9 113.27-34.83 114.19-35.75 115.44-35.75L115.44-35.75Q116.69-35.75 117.62-34.83 118.54-33.9 118.54-32.65L118.54-32.65Q118.54-31.4 117.62-30.48 116.69-29.55 115.44-29.55ZM131.14 0L126.49 0 126.49-21.55 122.04-21.55 122.04-25.5 126.49-25.5 126.49-29.25Q126.49-32.65 128.41-34.58 130.34-36.5 133.74-36.5L133.74-36.5 140.04-36.5 140.04-32.55 134.64-32.55Q132.94-32.55 132.04-31.6 131.14-30.65 131.14-28.95L131.14-28.95 131.14-25.5 139.04-25.5 139.04-21.55 131.14-21.55 131.14 0ZM157.44 10.15L152.84 10.15 152.84 0.4Q150.04 0 147.86-1.48 145.69-2.95 144.44-5.33 143.19-7.7 143.19-10.75L143.19-10.75 143.19-25.5 147.84-25.5 147.84-10.8Q147.84-8.5 148.84-6.83 149.84-5.15 151.51-4.25 153.19-3.35 155.09-3.35L155.09-3.35Q157.04-3.35 158.71-4.25 160.39-5.15 161.41-6.83 162.44-8.5 162.44-10.8L162.44-10.8 162.44-25.5 167.04-25.5 167.04-10.75Q167.04-7.7 165.81-5.35 164.59-3 162.41-1.53 160.24-0.05 157.44 0.4L157.44 0.4 157.44 10.15Z" opacity="1" transform="matrix(1,0,0,1,0,0)" fill="#003366" class="wordmark-text-0" data-fill-palette-color="quaternary" id="text-0"></path></svg></g></svg></g><g transform="matrix(1,0,0,1,75.54432,154.2730380393033)"><svg viewBox="0 0 244.43135999999998 18.530536890776897" height="18.530536890776897" width="244.43135999999998"><g transform="matrix(1,0,0,1,0,0)"><svg width="244.43135999999998" viewBox="3.5 -35 611.97998046875 46.400001525878906" height="18.530536890776897" data-palette-color="#ff9966"><path d="M14.3-4.4L22.85-4.4 22.85 0 15.55 0Q13.5 0 12.33-0.08 11.15-0.15 9.4-0.68 7.65-1.2 6.45-2.25L6.45-2.25Q4.6-3.95 4.05-6.33 3.5-8.7 3.5-11.9L3.5-11.9 3.5-35 8.2-35 8.2-12Q8.2-9.1 8.85-7.45L8.85-7.45Q10.15-4.4 14.3-4.4L14.3-4.4ZM38.85-24.5L38.85-24.5Q47.35-24.15 47.35-17.45L47.35-17.45Q47.35-9.1 36.4-9.1L36.4-9.1 34.35-9.1 34.35-12.95 36.75-12.95Q40.1-12.95 41.4-13.98 42.7-15 42.7-17.4L42.7-17.4Q42.7-18.95 41.55-19.73 40.4-20.5 38.6-20.5L38.6-20.5Q35.05-20.5 33.02-18 31-15.5 31-12L31-12Q31-8.3 33.17-6 35.35-3.7 38.85-3.7L38.85-3.7Q42-3.7 44-5.25L44-5.25 47-2.3Q43.55 0.5 38.85 0.5L38.85 0.5Q33.15 0.5 29.75-2.85 26.35-6.2 26.35-11.5L26.35-11.5Q26.35-17.4 29.7-21.05 33.05-24.7 38.85-24.5ZM65.69-14.1L65.69-14.1 65.69-9.6Q63.8-11.05 61.05-11.05L61.05-11.05Q58.7-11.05 57.39-10.13 56.09-9.2 56.09-7.5L56.09-7.5Q56.09-4.2 60.99-4.2L60.99-4.2 67.59-4.2 67.59-13.75Q67.59-19.8 61.7-19.8L61.7-19.8 53.7-19.8 53.7-24 61.95-24Q66.8-24 69.39-21.6 72-19.2 72-14.7L72-14.7 72 0 60.84 0Q56.59 0 54.09-1.9 51.59-3.8 51.59-7.45 51.59-11.1 54.24-13 56.89-14.9 60.89-14.9L60.89-14.9Q63.14-14.9 65.69-14.1ZM81.14 0L76.74 0 76.74-13.65Q76.74-19.4 78.89-21.6L78.89-21.6Q79.94-22.7 81.44-23.25 82.94-23.8 84.07-23.9 85.19-24 87.14-24L87.14-24 91.54-24 91.54-19.8 86.24-19.8Q85.24-19.8 84.69-19.75 84.14-19.7 83.39-19.4 82.64-19.1 82.09-18.45L82.09-18.45Q81.14-17.25 81.14-13.65L81.14-13.65 81.14 0ZM95.04 0L95.04-24 103.69-24Q109.24-24 111.64-22.35L111.64-22.35Q113.79-20.9 114.37-18.88 114.94-16.85 114.94-13.55L114.94-13.55 114.94 0 110.54 0 110.54-13.5Q110.54-14.4 110.49-15.03 110.44-15.65 110.14-16.63 109.84-17.6 109.29-18.23 108.74-18.85 107.69-19.33 106.64-19.8 105.14-19.8L105.14-19.8 99.44-19.8 99.44 0 95.04 0ZM134.53-19.8L130.09-19.8 139.03-28.75 139.03-24 145.78-24 145.78-19.8 139.03-19.8 139.03-9.5Q139.03-7.75 139.61-6.6 140.19-5.45 141.28-4.98 142.39-4.5 143.36-4.35 144.34-4.2 145.78-4.2L145.78-4.2 145.78 0Q140.03 0 137.28-2.2 134.53-4.4 134.53-9.5L134.53-9.5 134.53-19.8ZM150.53-35L154.93-35 154.93-24 159.18-24Q164.73-24 167.13-22.35L167.13-22.35Q169.28-20.9 169.86-18.88 170.43-16.85 170.43-13.55L170.43-13.55 170.43 0 166.03 0 166.03-13.5Q166.03-14.4 165.98-15.03 165.93-15.65 165.63-16.63 165.33-17.6 164.78-18.23 164.23-18.85 163.18-19.33 162.13-19.8 160.63-19.8L160.63-19.8 154.93-19.8 154.93 0 150.53 0 150.53-35ZM188.18-24.5L188.18-24.5Q196.68-24.15 196.68-17.45L196.68-17.45Q196.68-9.1 185.73-9.1L185.73-9.1 183.68-9.1 183.68-12.95 186.08-12.95Q189.43-12.95 190.73-13.98 192.03-15 192.03-17.4L192.03-17.4Q192.03-18.95 190.88-19.73 189.73-20.5 187.93-20.5L187.93-20.5Q184.38-20.5 182.36-18 180.33-15.5 180.33-12L180.33-12Q180.33-8.3 182.5-6 184.68-3.7 188.18-3.7L188.18-3.7Q191.33-3.7 193.33-5.25L193.33-5.25 196.33-2.3Q192.88 0.5 188.18 0.5L188.18 0.5Q182.48 0.5 179.08-2.85 175.68-6.2 175.68-11.5L175.68-11.5Q175.68-17.4 179.03-21.05 182.38-24.7 188.18-24.5ZM213.33-9.5L213.33-9.5 213.33-35 217.83-35 217.83-9.5Q217.83-7.7 218.25-6.58 218.68-5.45 219.58-4.98 220.48-4.5 221.33-4.35 222.18-4.2 223.58-4.2L223.58-4.2 223.58 0Q217.98 0 215.65-2.15 213.33-4.3 213.33-9.5ZM240.17-14.1L240.17-14.1 240.17-9.6Q238.27-11.05 235.52-11.05L235.52-11.05Q233.17-11.05 231.87-10.13 230.57-9.2 230.57-7.5L230.57-7.5Q230.57-4.2 235.47-4.2L235.47-4.2 242.07-4.2 242.07-13.75Q242.07-19.8 236.17-19.8L236.17-19.8 228.17-19.8 228.17-24 236.42-24Q241.27-24 243.87-21.6 246.47-19.2 246.47-14.7L246.47-14.7 246.47 0 235.32 0Q231.07 0 228.57-1.9 226.07-3.8 226.07-7.45 226.07-11.1 228.72-13 231.37-14.9 235.37-14.9L235.37-14.9Q237.62-14.9 240.17-14.1ZM252.22 0L252.22-24 260.87-24Q266.42-24 268.82-22.35L268.82-22.35Q270.97-20.9 271.55-18.88 272.12-16.85 272.12-13.55L272.12-13.55 272.12 0 267.72 0 267.72-13.5Q267.72-14.4 267.67-15.03 267.62-15.65 267.32-16.63 267.02-17.6 266.47-18.23 265.92-18.85 264.87-19.33 263.82-19.8 262.32-19.8L262.32-19.8 256.62-19.8 256.62 0 252.22 0ZM289.27 0L289.27 0Q284.37 0 280.87-3.3 277.37-6.6 277.37-11.75L277.37-11.75Q277.37-16.95 280.89-20.48 284.42-24 289.62-24L289.62-24 301.37-24 301.37-0.7Q301.37 1.55 300.79 3.35 300.22 5.15 299.17 6.4 298.12 7.65 297.27 8.35 296.42 9.05 295.22 9.8L295.22 9.8Q292.12 11.4 287.67 11.4L287.67 11.4 282.07 11.4 282.07 7.2 287.22 7.2Q291.62 7.2 293.47 6.1L293.47 6.1Q296.87 4.2 296.87-0.2L296.87-0.2 296.87-19.8 289.62-19.8Q286.07-19.8 283.97-17.6 281.87-15.4 281.87-11.75L281.87-11.75Q281.87-8.25 284.04-6.23 286.22-4.2 289.27-4.2L289.27-4.2Q292.57-4.2 295.07-6L295.07-6 295.07-1.5Q292.37 0 289.27 0ZM327.51-24L327.51 0 318.87 0Q313.31 0 310.92-1.65L310.92-1.65Q308.76-3.1 308.19-5.13 307.62-7.15 307.62-10.45L307.62-10.45 307.62-24 312.01-24 312.01-10.5Q312.01-9.6 312.06-8.97 312.12-8.35 312.42-7.38 312.72-6.4 313.26-5.78 313.81-5.15 314.87-4.67 315.92-4.2 317.42-4.2L317.42-4.2 323.12-4.2 323.12-24 327.51-24ZM347.11-14.1L347.11-14.1 347.11-9.6Q345.21-11.05 342.46-11.05L342.46-11.05Q340.11-11.05 338.81-10.13 337.51-9.2 337.51-7.5L337.51-7.5Q337.51-4.2 342.41-4.2L342.41-4.2 349.01-4.2 349.01-13.75Q349.01-19.8 343.11-19.8L343.11-19.8 335.11-19.8 335.11-24 343.36-24Q348.21-24 350.81-21.6 353.41-19.2 353.41-14.7L353.41-14.7 353.41 0 342.26 0Q338.01 0 335.51-1.9 333.01-3.8 333.01-7.45 333.01-11.1 335.66-13 338.31-14.9 342.31-14.9L342.31-14.9Q344.56-14.9 347.11-14.1ZM370.06 0L370.06 0Q365.16 0 361.66-3.3 358.16-6.6 358.16-11.75L358.16-11.75Q358.16-16.95 361.68-20.48 365.21-24 370.41-24L370.41-24 382.16-24 382.16-0.7Q382.16 1.55 381.58 3.35 381.01 5.15 379.96 6.4 378.91 7.65 378.06 8.35 377.21 9.05 376.01 9.8L376.01 9.8Q372.91 11.4 368.46 11.4L368.46 11.4 362.86 11.4 362.86 7.2 368.01 7.2Q372.41 7.2 374.26 6.1L374.26 6.1Q377.66 4.2 377.66-0.2L377.66-0.2 377.66-19.8 370.41-19.8Q366.86-19.8 364.76-17.6 362.66-15.4 362.66-11.75L362.66-11.75Q362.66-8.25 364.83-6.23 367.01-4.2 370.06-4.2L370.06-4.2Q373.36-4.2 375.86-6L375.86-6 375.86-1.5Q373.16 0 370.06 0ZM400.16-24.5L400.16-24.5Q408.66-24.15 408.66-17.45L408.66-17.45Q408.66-9.1 397.71-9.1L397.71-9.1 395.66-9.1 395.66-12.95 398.06-12.95Q401.41-12.95 402.71-13.98 404.01-15 404.01-17.4L404.01-17.4Q404.01-18.95 402.86-19.73 401.71-20.5 399.91-20.5L399.91-20.5Q396.36-20.5 394.33-18 392.31-15.5 392.31-12L392.31-12Q392.31-8.3 394.48-6 396.66-3.7 400.16-3.7L400.16-3.7Q403.31-3.7 405.31-5.25L405.31-5.25 408.31-2.3Q404.86 0.5 400.16 0.5L400.16 0.5Q394.46 0.5 391.06-2.85 387.66-6.2 387.66-11.5L387.66-11.5Q387.66-17.4 391.01-21.05 394.36-24.7 400.16-24.5ZM424.55-11.65L424.55-24 428.95-24 428.95-11.45Q428.95-7.4 430.2-5.8 431.45-4.2 434.8-4.2L434.8-4.2 440.05-4.2 440.05-24 444.45-24 444.45-1.2Q444.45 5.05 441.18 8.22 437.9 11.4 430.9 11.4L430.9 11.4 427.3 11.4 427.3 7.2 430.45 7.2Q439.6 7.2 440.05 0L440.05 0 435.85 0Q429.3 0 426.93-2.3 424.55-4.6 424.55-11.65L424.55-11.65ZM452.95-20.85L452.95-20.85Q456.45-24.5 461.7-24.5L461.7-24.5Q464.25-24.5 466.47-23.53 468.7-22.55 470.37-20.85 472.05-19.15 473-16.88 473.95-14.6 473.95-12L473.95-12Q473.95-9.4 473.02-7.13 472.1-4.85 470.45-3.15 468.8-1.45 466.55-0.48 464.3 0.5 461.7 0.5L461.7 0.5Q459.05 0.5 456.82-0.48 454.6-1.45 452.95-3.15 451.3-4.85 450.37-7.13 449.45-9.4 449.45-12L449.45-12Q449.45-17.3 452.95-20.85ZM461.7-20.3L461.7-20.3Q458.2-20.3 456.07-18 453.95-15.7 453.95-12 453.95-8.3 456.07-6 458.2-3.7 461.7-3.7L461.7-3.7Q465.25-3.7 467.35-6.03 469.45-8.35 469.45-12 469.45-15.65 467.35-17.98 465.25-20.3 461.7-20.3ZM499.1-24L499.1 0 490.45 0Q484.9 0 482.5-1.65L482.5-1.65Q480.35-3.1 479.77-5.13 479.2-7.15 479.2-10.45L479.2-10.45 479.2-24 483.6-24 483.6-10.5Q483.6-9.6 483.65-8.97 483.7-8.35 484-7.38 484.3-6.4 484.85-5.78 485.4-5.15 486.45-4.67 487.5-4.2 489-4.2L489-4.2 494.7-4.2 494.7-24 499.1-24ZM538.04 0.5L538.04 0.5Q534.34-2.35 533.09-5.25 531.84-8.15 531.24-13.8L531.24-13.8 530.74-13.8Q530.14-8.15 528.89-5.25 527.64-2.35 523.94 0.5L523.94 0.5Q520.49-1.2 518.47-5.65 516.44-10.1 516.09-16.65L516.09-16.65 515.74-24 520.19-24 520.59-16.85Q521.04-8.65 523.84-4.95L523.84-4.95Q524.59-5.8 525.24-6.85 525.89-7.9 526.34-9.18 526.79-10.45 527.12-11.43 527.44-12.4 527.72-13.93 527.99-15.45 528.09-16.15 528.19-16.85 528.37-18.4 528.54-19.95 528.59-20.15L528.59-20.15 533.39-20.15Q533.44-19.95 533.62-18.4 533.79-16.85 533.89-16.15 533.99-15.45 534.27-13.93 534.54-12.4 534.87-11.43 535.19-10.45 535.64-9.18 536.09-7.9 536.74-6.85 537.39-5.8 538.14-4.95L538.14-4.95Q540.94-8.65 541.39-16.85L541.39-16.85 541.79-24 546.24-24 545.89-16.65Q545.54-10.1 543.52-5.65 541.49-1.2 538.04 0.5ZM564.34-14.1L564.34-14.1 564.34-9.6Q562.44-11.05 559.69-11.05L559.69-11.05Q557.34-11.05 556.04-10.13 554.74-9.2 554.74-7.5L554.74-7.5Q554.74-4.2 559.64-4.2L559.64-4.2 566.24-4.2 566.24-13.75Q566.24-19.8 560.34-19.8L560.34-19.8 552.34-19.8 552.34-24 560.59-24Q565.44-24 568.04-21.6 570.64-19.2 570.64-14.7L570.64-14.7 570.64 0 559.49 0Q555.24 0 552.74-1.9 550.24-3.8 550.24-7.45 550.24-11.1 552.89-13 555.54-14.9 559.54-14.9L559.54-14.9Q561.79-14.9 564.34-14.1ZM576.39 0L576.39-24 585.04-24Q590.59-24 592.99-22.35L592.99-22.35Q595.14-20.9 595.71-18.88 596.29-16.85 596.29-13.55L596.29-13.55 596.29 0 591.89 0 591.89-13.5Q591.89-14.4 591.84-15.03 591.79-15.65 591.49-16.63 591.19-17.6 590.64-18.23 590.09-18.85 589.04-19.33 587.99-19.8 586.49-19.8L586.49-19.8 580.79-19.8 580.79 0 576.39 0ZM604.23-19.8L599.78-19.8 608.73-28.75 608.73-24 615.48-24 615.48-19.8 608.73-19.8 608.73-9.5Q608.73-7.75 609.31-6.6 609.88-5.45 610.98-4.98 612.08-4.5 613.06-4.35 614.03-4.2 615.48-4.2L615.48-4.2 615.48 0Q609.73 0 606.98-2.2 604.23-4.4 604.23-9.5L604.23-9.5 604.23-19.8Z" opacity="1" transform="matrix(1,0,0,1,0,0)" fill="#ff9966" class="slogan-text-1" data-fill-palette-color="secondary" id="text-1"></path></svg></g></svg></g></svg></g></svg></g><g></g></svg></g><defs></defs></svg><rect width="395.52" height="172.8035749300802" fill="none" stroke="none" visibility="hidden"></rect></g></svg></g></g></g></g><rect width="295.9659118652344" height="94.6291465759277" x="173.01704406738276" y="134.6667861938476" rx="2.5" ry="2.5" fill="transparent" class="logo-element-hover-target"></rect><rect width="256.40338134765625" height="30.530540466308594" x="192.79830932617182" y="262.87124633789057" rx="2.5" ry="2.5" fill="transparent" class="logo-element-hover-target"></rect></svg>
