<svg width="284" height="84" viewBox="0 0 284 84" fill="none" xmlns="http://www.w3.org/2000/svg">
<path d="M8.36689 64.1608H0.0169983V3.27612H25.6755C29.5026 3.27612 32.9817 4.1343 36.1129 5.85067C39.2441 7.55544 41.7375 9.94444 43.593 13.0177C45.4485 16.0909 46.3763 19.686 46.3763 23.8029C46.3763 27.8039 45.4659 31.341 43.6452 34.4143C41.8129 37.4875 39.3311 39.8939 36.1999 41.6334C33.0687 43.373 29.5026 44.2428 25.5016 44.2428H8.36689V64.1608ZM8.36689 10.6693V36.8497H24.5448C27.0382 36.8497 29.317 36.3452 31.3813 35.3362C33.434 34.3157 35.0576 32.8197 36.2521 30.8482C37.435 28.8767 38.0264 26.5283 38.0264 23.8029C38.0264 21.0196 37.435 18.6538 36.2521 16.7055C35.0576 14.7688 33.434 13.2786 31.3813 12.2349C29.317 11.1911 27.0672 10.6693 24.6318 10.6693H8.36689ZM63.8589 64.1608H55.8569V32.4138C55.8569 28.4708 56.9702 25.3801 59.1969 23.1419C61.4351 20.9153 64.5257 19.802 68.4687 19.802H77.6014V26.6732H69.9474C68.0338 26.6732 66.5378 27.2241 65.4593 28.3258C64.3924 29.4275 63.8589 30.9641 63.8589 32.9356V64.1608ZM118.916 64.1608H107.504C102.645 64.1608 98.3312 63.2446 94.5621 61.4123C90.7931 59.5915 87.8474 57.0112 85.7252 53.6712C83.6145 50.3428 82.5592 46.4462 82.5592 41.9814C82.5592 37.5745 83.4579 33.6141 85.2555 30.1002C87.053 26.5978 89.5464 23.8319 92.7356 21.8024C95.9248 19.773 99.6359 18.7582 103.869 18.7582C108.45 18.7582 112.259 19.744 115.298 21.7155C118.348 23.687 120.627 26.3369 122.134 29.6653C123.642 33.0052 124.396 36.7337 124.396 40.8506C124.396 41.4885 124.378 42.1553 124.343 42.8511C124.32 43.547 124.251 44.1558 124.135 44.6777H91.083C91.373 47.403 92.2717 49.705 93.7793 51.5837C95.287 53.4741 97.2121 54.8947 99.5547 55.8457C101.909 56.8082 104.507 57.2895 107.348 57.2895H118.916V64.1608ZM90.996 39.0241H116.307C116.307 37.9224 116.191 36.7453 115.959 35.4928C115.727 34.2519 115.321 33.04 114.741 31.8571C114.161 30.6626 113.39 29.5841 112.427 28.6215C111.465 27.6706 110.276 26.9052 108.861 26.3253C107.446 25.7455 105.782 25.4555 103.869 25.4555C101.839 25.4555 100.053 25.844 98.5109 26.621C96.9801 27.4096 95.6639 28.4534 94.5621 29.7522C93.4604 31.0627 92.6196 32.5297 92.0398 34.1533C91.4599 35.7769 91.112 37.4005 90.996 39.0241ZM156.995 18.7582C152.704 18.7582 148.848 19.686 145.427 21.5415C142.006 23.397 139.298 26.076 137.303 29.5783C135.297 33.0922 134.294 37.3135 134.294 42.2423V83.2959H142.296V56.2458H142.47C143.455 58.0433 144.748 59.6089 146.349 60.9426C147.938 62.2762 149.764 63.32 151.828 64.0738C153.881 64.8276 156.038 65.2045 158.3 65.2045C162.417 65.2045 166.099 64.2767 169.346 62.4212C172.593 60.5657 175.162 57.9389 177.052 54.541C178.931 51.1546 179.87 47.1421 179.87 42.5032C179.87 38.8501 179.308 35.5566 178.183 32.6225C177.046 29.7001 175.463 27.1951 173.434 25.1076C171.404 23.0201 168.998 21.4371 166.215 20.3586C163.431 19.2917 160.358 18.7582 156.995 18.7582ZM156.995 25.6295C159.72 25.6295 162.202 26.2963 164.44 27.63C166.667 28.9636 168.447 30.8482 169.781 33.2836C171.114 35.7189 171.781 38.6182 171.781 41.9814C171.781 45.2285 171.132 48.0698 169.833 50.5052C168.522 52.9406 166.766 54.8541 164.562 56.2458C162.359 57.6374 159.865 58.3332 157.082 58.3332C154.357 58.3332 151.881 57.6664 149.654 56.3327C147.416 54.9991 145.647 53.0972 144.348 50.627C143.038 48.1684 142.383 45.2575 142.383 41.8944C142.383 38.5892 143.038 35.7189 144.348 33.2836C145.647 30.8482 147.416 28.9636 149.654 27.63C151.881 26.2963 154.328 25.6295 156.995 25.6295ZM198.223 64.1608H190.134V19.802H198.223V64.1608ZM194.222 12.7567C192.772 12.7567 191.514 12.2175 190.447 11.1389C189.368 10.072 188.829 8.81372 188.829 7.36409C188.829 5.91445 189.368 4.65037 190.447 3.57184C191.514 2.50491 192.772 1.97145 194.222 1.97145C195.671 1.97145 196.935 2.50491 198.014 3.57184C199.081 4.65037 199.614 5.91445 199.614 7.36409C199.614 8.81372 199.081 10.072 198.014 11.1389C196.935 12.2175 195.671 12.7567 194.222 12.7567ZM221.533 64.1608H213.444V26.6732H205.703V19.802H213.444V13.2786C213.444 9.33559 214.557 6.24497 216.784 4.00673C219.022 1.78009 222.113 0.666779 226.056 0.666779H237.015V7.53805H227.621C225.65 7.53805 224.142 8.08891 223.098 9.19063C222.055 10.2923 221.533 11.829 221.533 13.8005V19.802H235.275V26.6732H221.533V64.1608ZM267.283 81.8173H259.281V64.8566C256.034 64.3927 253.146 63.3026 250.618 61.5862C248.102 59.8814 246.119 57.649 244.669 54.8889C243.219 52.1404 242.494 48.9976 242.494 45.4605V19.802H250.583V45.3735C250.583 48.0408 251.163 50.3428 252.323 52.2796C253.483 54.2279 255.031 55.7239 256.968 56.7676C258.916 57.8114 260.992 58.3332 263.195 58.3332C265.457 58.3332 267.556 57.8114 269.492 56.7676C271.441 55.7239 273.006 54.2279 274.189 52.2796C275.384 50.3428 275.981 48.0408 275.981 45.3735V19.802H283.983V45.4605C283.983 48.9976 283.27 52.1288 281.843 54.8541C280.428 57.5794 278.457 59.7945 275.929 61.4992C273.412 63.2156 270.53 64.3347 267.283 64.8566V81.8173Z" fill="#003366"/>
</svg>
