<svg id="FLATICON_FLAT" height="512" viewBox="0 0 64 64" width="512" xmlns="http://www.w3.org/2000/svg" xmlns:xlink="http://www.w3.org/1999/xlink" data-name="FLATICON FLAT"><linearGradient id="linear-gradient" gradientUnits="userSpaceOnUse" x1="4.969" x2="59.035" y1="32.001" y2="32.001"><stop offset="0" stop-color="#00c0ff"/><stop offset="1" stop-color="#5558ff"/></linearGradient><path d="m58.94 12.59-2.57 16.24a7.643 7.643 0 0 1 -8.23 6.47 7.43892 7.43892 0 0 1 -6.5-6.34 1.34764 1.34764 0 0 0 -1.11-1.15 1.37113 1.37113 0 0 0 -1 .24 1.29728 1.29728 0 0 0 -.53.87l-3.21 20.27a7.59094 7.59094 0 0 1 -8.05 6.5 7.40261 7.40261 0 0 1 -6.26-4.73 2.84675 2.84675 0 0 0 -5.44.65l-.4 2.5a5.43756 5.43756 0 0 1 -5.38 4.59 5.36869 5.36869 0 0 1 -1.37-.18c-2.9-.74-4.39-3.65-3.79-7.39l1.89-11.95a5.59287 5.59287 0 0 1 5.67-4.76 5.43818 5.43818 0 0 1 4.84 3.58 2.66973 2.66973 0 0 0 2.08 1.82 2.59346 2.59346 0 0 0 2.99-2.17l3.8-23.94a7.53456 7.53456 0 0 1 8.69-6.14c3.78.6 5.96 3.28 6 7.35a1.22821 1.22821 0 0 0 1.95.98 1.19591 1.19591 0 0 0 .49-.8l.73-4.57a7.61069 7.61069 0 0 1 8.31-6.47 7.41756 7.41756 0 0 1 6.4 8.53zm-5.51 36.84a5.285 5.285 0 1 0 5.28 5.28 5.2899 5.2899 0 0 0 -5.28-5.28zm-2.5-7.12a3.535 3.535 0 1 0 -3.54 3.53 3.54653 3.54653 0 0 0 3.54-3.53zm-33.93-23.22a5.285 5.285 0 1 0 -5.28-5.29 5.292 5.292 0 0 0 5.28 5.29zm-6.03 10.66a3.54 3.54 0 1 0 -3.54-3.54 3.538 3.538 0 0 0 3.54 3.54z" fill="url(#linear-gradient)"/></svg>