<svg id="svg5" height="512" viewBox="0 0 180.62223 180.62223" width="512" xmlns="http://www.w3.org/2000/svg" xmlns:xlink="http://www.w3.org/1999/xlink" xmlns:svg="http://www.w3.org/2000/svg"><linearGradient id="linearGradient21800" gradientUnits="userSpaceOnUse" x1="-1307.732" x2="-1163.798" y1="-717.124" y2="-858.777"><stop id="stop21794" offset="0" stop-color="#ff58ae"/><stop id="stop21796" offset="1" stop-color="#6a279b"/></linearGradient><g id="layer1" transform="translate(1326.687 879.153)"><path id="path667" d="m-1236.3771-848.84197a10.909116 10.909116 0 0 0 -10.9082 10.90844v38.18237h-38.1826a10.909116 10.909116 0 0 0 -10.9082 10.90847 10.909116 10.909116 0 0 0 10.9082 10.90984h38.1826v38.18101a10.909116 10.909116 0 0 0 10.9082 10.90987 10.909116 10.909116 0 0 0 10.9099-10.90987v-38.18101h38.181a10.909116 10.909116 0 0 0 10.9099-10.90984 10.909116 10.909116 0 0 0 -10.9099-10.90847h-38.181v-38.18237a10.909116 10.909116 0 0 0 -10.9099-10.90844z" fill="url(#linearGradient21800)" font-variation-settings="normal" vector-effect="none"/></g></svg>