<svg id="Capa_1" enable-background="new 0 0 512 512" height="512" viewBox="0 0 512 512" width="512" xmlns="http://www.w3.org/2000/svg" xmlns:xlink="http://www.w3.org/1999/xlink"><linearGradient id="SVGID_1_" gradientUnits="userSpaceOnUse" x1="256" x2="256" y1="512" y2="0"><stop offset="0" stop-color="#fd3a84"/><stop offset="1" stop-color="#ffa68d"/></linearGradient><g><g><path d="m390 120c33.084 0 60-26.916 60-60s-26.916-60-60-60-60 26.916-60 60 26.916 60 60 60zm0-90c16.542 0 30 13.458 30 30s-13.458 30-30 30-30-13.458-30-30 13.458-30 30-30zm-14.382 240.382c0-91.189-73.796-165-165-165-21.437 0-42.246 4.072-61.556 11.829-34.16-25.332-109.954-78.37-139.969-48.355-30.01 30.01 23.117 105.97 48.407 140.068-43.423 108.618 36.577 226.457 153.118 226.458 21.429 0 42.231-4.07 61.538-11.823 34.717 25.742 110.028 78.312 139.988 48.347 30.009-30.009-22.994-105.771-48.354-139.969 7.756-19.31 11.828-40.118 11.828-61.555zm-314.267-108.281c-30.688-46.956-32.759-67.84-31.001-71.985 4.539-1.894 30.288.946 89.118 42.672-18.323 12.193-34.228 28.075-46.42 46.468-4.134-5.837-8.044-11.564-11.697-17.155zm149.267 243.281c-87.956-.001-152.167-82.599-130.897-167.879 22.718 27.986 49.134 57.182 77.864 85.912 28.76 28.76 57.988 55.202 86 77.936-10.651 2.661-21.704 4.031-32.967 4.031zm-31.82-103.18c-32.553-32.553-62.144-65.822-86.42-96.986 23.571-42.809 68.435-69.834 118.24-69.834 74.61 0 135 60.38 135 135 0 51.179-28.332 95.332-69.797 118.269-31.175-24.281-64.457-53.883-97.023-86.449zm212.087 148.448c-4.146 1.76-25.03-.314-71.985-31.001-5.582-3.648-11.3-7.551-17.126-11.677 18.115-12.055 34.093-27.886 46.439-46.441 41.726 58.832 44.565 84.584 42.672 89.119zm-345.885-28.65c-24.813 0-45 20.187-45 45s20.187 45 45 45 45-20.187 45-45-20.187-45-45-45zm0 60c-8.271 0-15-6.729-15-15s6.729-15 15-15 15 6.729 15 15-6.729 15-15 15zm422-211c-24.813 0-45 20.187-45 45s20.187 45 45 45 45-20.187 45-45-20.187-45-45-45zm0 60c-8.271 0-15-6.729-15-15s6.729-15 15-15 15 6.729 15 15-6.729 15-15 15z" fill="url(#SVGID_1_)"/></g></g></svg>